<svg width="637" height="50" viewBox="0 0 637 50" fill="none" xmlns="http://www.w3.org/2000/svg">
<g filter="url(#filter0_d_122_114)">
<path d="M3.57812 44V4H14.4375V35.25H30.6094V44H3.57812ZM48.1396 44H36.4209L49.624 4H64.4678L77.6709 44H65.9522L57.2021 15.0156H56.8896L48.1396 44ZM45.9521 28.2188H67.9834V36.3437H45.9521V28.2188ZM104.278 16.5C104.174 15.1979 103.686 14.1823 102.813 13.4531C101.954 12.724 100.646 12.3594 98.8877 12.3594C97.7679 12.3594 96.8499 12.4961 96.1338 12.7695C95.4307 13.0299 94.9098 13.388 94.5713 13.8437C94.2327 14.2995 94.057 14.8203 94.0439 15.4062C94.0179 15.888 94.1025 16.3242 94.2979 16.7148C94.5062 17.0924 94.8317 17.4375 95.2744 17.75C95.7171 18.0495 96.2835 18.3229 96.9736 18.5703C97.6637 18.8177 98.4841 19.0391 99.4346 19.2344L102.716 19.9375C104.929 20.4062 106.824 21.0247 108.399 21.793C109.975 22.5612 111.264 23.4661 112.267 24.5078C113.269 25.5365 114.005 26.6953 114.474 27.9844C114.955 29.2734 115.203 30.6797 115.216 32.2031C115.203 34.8333 114.545 37.0599 113.243 38.8828C111.941 40.7057 110.079 42.0924 107.657 43.043C105.248 43.9935 102.351 44.4688 98.9658 44.4688C95.4893 44.4688 92.4554 43.9544 89.8643 42.9258C87.2861 41.8971 85.2809 40.3151 83.8486 38.1797C82.4294 36.0312 81.7132 33.2839 81.7002 29.9375H92.0127C92.0778 31.1615 92.3838 32.1901 92.9307 33.0234C93.4775 33.8568 94.2458 34.4883 95.2354 34.918C96.238 35.3477 97.4294 35.5625 98.8096 35.5625C99.9684 35.5625 100.938 35.4193 101.72 35.1328C102.501 34.8464 103.093 34.4492 103.497 33.9414C103.901 33.4336 104.109 32.8542 104.122 32.2031C104.109 31.5911 103.907 31.0573 103.517 30.6016C103.139 30.1328 102.514 29.7161 101.642 29.3516C100.769 28.974 99.5908 28.6224 98.1064 28.2969L94.1221 27.4375C90.5804 26.6693 87.7874 25.3867 85.7432 23.5898C83.7119 21.7799 82.7028 19.3125 82.7158 16.1875C82.7028 13.6484 83.3799 11.4284 84.7471 9.52734C86.1273 7.61328 88.0348 6.12239 90.4697 5.05469C92.9176 3.98698 95.7236 3.45312 98.8877 3.45312C102.117 3.45312 104.91 3.99349 107.267 5.07422C109.623 6.15495 111.44 7.67839 112.716 9.64453C114.005 11.5977 114.656 13.8828 114.669 16.5H104.278ZM121.003 12.75V4H155.769V12.75H143.737V44H133.034V12.75H121.003ZM176.312 44V4H193.578C196.547 4 199.145 4.58594 201.371 5.75781C203.598 6.92969 205.329 8.57682 206.566 10.6992C207.803 12.8216 208.422 15.3021 208.422 18.1406C208.422 21.0052 207.784 23.4857 206.508 25.582C205.245 27.6784 203.467 29.293 201.176 30.4258C198.897 31.5586 196.234 32.125 193.188 32.125H182.875V23.6875H191C192.276 23.6875 193.363 23.4661 194.262 23.0234C195.173 22.5677 195.87 21.9232 196.352 21.0898C196.846 20.2565 197.094 19.2734 197.094 18.1406C197.094 16.9948 196.846 16.0182 196.352 15.2109C195.87 14.3906 195.173 13.7656 194.262 13.3359C193.363 12.8932 192.276 12.6719 191 12.6719H187.172V44H176.312ZM238.828 4H249.688V29.625C249.688 32.6719 248.958 35.3086 247.5 37.5352C246.055 39.7487 244.036 41.4609 241.445 42.6719C238.854 43.8698 235.846 44.4688 232.422 44.4688C228.971 44.4688 225.951 43.8698 223.359 42.6719C220.768 41.4609 218.75 39.7487 217.305 37.5352C215.872 35.3086 215.156 32.6719 215.156 29.625V4H226.016V28.6875C226.016 29.9245 226.289 31.0312 226.836 32.0078C227.383 32.9714 228.138 33.7266 229.102 34.2734C230.078 34.8203 231.185 35.0937 232.422 35.0937C233.672 35.0937 234.779 34.8203 235.742 34.2734C236.706 33.7266 237.461 32.9714 238.008 32.0078C238.555 31.0312 238.828 29.9245 238.828 28.6875V4ZM292.208 4V44H283.146L268.692 22.9844H268.458V44H257.599V4H266.817L281.036 24.9375H281.349V4H292.208ZM300.095 44V4H310.954V20.1719H311.501L323.532 4H336.188L322.673 21.8125L336.501 44H323.532L314.548 29L310.954 33.6875V44H300.095ZM393.212 19H382.196C382.118 18.0885 381.91 17.2617 381.571 16.5195C381.246 15.7773 380.79 15.1393 380.204 14.6055C379.631 14.0586 378.935 13.6419 378.114 13.3555C377.294 13.056 376.363 12.9062 375.321 12.9062C373.498 12.9062 371.955 13.349 370.692 14.2344C369.442 15.1198 368.492 16.3893 367.841 18.043C367.203 19.6966 366.884 21.6823 366.884 24C366.884 26.4479 367.209 28.4987 367.86 30.1523C368.524 31.793 369.481 33.0299 370.731 33.8633C371.981 34.6836 373.485 35.0937 375.243 35.0937C376.246 35.0937 377.144 34.9701 377.938 34.7227C378.733 34.4622 379.423 34.0911 380.009 33.6094C380.595 33.1276 381.07 32.5482 381.435 31.8711C381.812 31.181 382.066 30.4062 382.196 29.5469L393.212 29.625C393.082 31.3177 392.606 33.043 391.786 34.8008C390.966 36.5456 389.8 38.1602 388.29 39.6445C386.793 41.1159 384.937 42.3008 382.724 43.1992C380.51 44.0977 377.938 44.5469 375.009 44.5469C371.337 44.5469 368.043 43.7591 365.126 42.1836C362.222 40.6081 359.924 38.2904 358.231 35.2305C356.552 32.1706 355.712 28.4271 355.712 24C355.712 19.5469 356.571 15.7969 358.29 12.75C360.009 9.6901 362.326 7.3789 365.243 5.8164C368.16 4.24088 371.415 3.45312 375.009 3.45312C377.535 3.45312 379.859 3.79818 381.981 4.48828C384.104 5.17838 385.966 6.1875 387.567 7.51562C389.169 8.83073 390.458 10.4518 391.435 12.3789C392.411 14.306 393.004 16.513 393.212 19ZM411.748 4V44H400.889V4H411.748ZM418.551 12.75V4H453.316V12.75H441.285V44H430.582V12.75H418.551ZM471.013 4V44H460.153V4H471.013ZM479.065 44V37.9844L497.972 12.75H479.144V4H511.8V10.0156L492.894 35.25H511.722V44H479.065ZM519.848 44V4H548.676V12.75H530.707V19.625H547.191V28.375H530.707V35.25H548.598V44H519.848ZM591.421 4V44H582.358L567.905 22.9844H567.671V44H556.812V4H566.03L580.249 24.9375H580.562V4H591.421ZM620.87 16.5C620.766 15.1979 620.278 14.1823 619.405 13.4531C618.546 12.724 617.237 12.3594 615.479 12.3594C614.36 12.3594 613.442 12.4961 612.726 12.7695C612.022 13.0299 611.502 13.388 611.163 13.8437C610.825 14.2995 610.649 14.8203 610.636 15.4062C610.61 15.888 610.694 16.3242 610.89 16.7148C611.098 17.0924 611.424 17.4375 611.866 17.75C612.309 18.0495 612.875 18.3229 613.565 18.5703C614.256 18.8177 615.076 19.0391 616.026 19.2344L619.308 19.9375C621.521 20.4062 623.416 21.0247 624.991 21.793C626.567 22.5612 627.856 23.4661 628.858 24.5078C629.861 25.5365 630.597 26.6953 631.065 27.9844C631.547 29.2734 631.795 30.6797 631.808 32.2031C631.795 34.8333 631.137 37.0599 629.835 38.8828C628.533 40.7057 626.671 42.0924 624.249 43.043C621.84 43.9935 618.943 44.4688 615.558 44.4688C612.081 44.4688 609.047 43.9544 606.456 42.9258C603.878 41.8971 601.873 40.3151 600.44 38.1797C599.021 36.0312 598.305 33.2839 598.292 29.9375H608.604C608.67 31.1615 608.976 32.1901 609.522 33.0234C610.069 33.8568 610.838 34.4883 611.827 34.918C612.83 35.3477 614.021 35.5625 615.401 35.5625C616.56 35.5625 617.53 35.4193 618.312 35.1328C619.093 34.8464 619.685 34.4492 620.089 33.9414C620.493 33.4336 620.701 32.8542 620.714 32.2031C620.701 31.5911 620.499 31.0573 620.108 30.6016C619.731 30.1328 619.106 29.7161 618.233 29.3516C617.361 28.974 616.183 28.6224 614.698 28.2969L610.714 27.4375C607.172 26.6693 604.379 25.3867 602.335 23.5898C600.304 21.7799 599.295 19.3125 599.308 16.1875C599.295 13.6484 599.972 11.4284 601.339 9.52734C602.719 7.61328 604.627 6.12239 607.062 5.05469C609.509 3.98698 612.315 3.45312 615.479 3.45312C618.709 3.45312 621.502 3.99349 623.858 5.07422C626.215 6.15495 628.032 7.67839 629.308 9.64453C630.597 11.5977 631.248 13.8828 631.261 16.5H620.87Z" fill="url(#paint0_angular_122_114)" shape-rendering="crispEdges"/>
</g>
<defs>
<filter id="filter0_d_122_114" x="0.578125" y="0.453125" width="636.229" height="49.0938" filterUnits="userSpaceOnUse" color-interpolation-filters="sRGB">
<feFlood flood-opacity="0" result="BackgroundImageFix"/>
<feColorMatrix in="SourceAlpha" type="matrix" values="0 0 0 0 0 0 0 0 0 0 0 0 0 0 0 0 0 0 127 0" result="hardAlpha"/>
<feOffset dx="1" dy="1"/>
<feGaussianBlur stdDeviation="2"/>
<feComposite in2="hardAlpha" operator="out"/>
<feColorMatrix type="matrix" values="0 0 0 0 0 0 0 0 0 0 0 0 0 0 0 0 0 0 1 0"/>
<feBlend mode="normal" in2="BackgroundImageFix" result="effect1_dropShadow_122_114"/>
<feBlend mode="normal" in="SourceGraphic" in2="effect1_dropShadow_122_114" result="shape"/>
</filter>
<radialGradient id="paint0_angular_122_114" cx="0" cy="0" r="1" gradientUnits="userSpaceOnUse" gradientTransform="translate(323.883 70) rotate(80.5779) scale(76.5958 602.227)">
<stop stop-color="#3CACBD"/>
<stop offset="0.991962" stop-color="#3CACBD" stop-opacity="0"/>
</radialGradient>
</defs>
</svg>
